<?xml version="1.0" encoding="UTF-8" standalone="no"?><!DOCTYPE svg PUBLIC "-//W3C//DTD SVG 1.1//EN" "http://www.w3.org/Graphics/SVG/1.1/DTD/svg11.dtd"><svg width="100%" height="100%" viewBox="0 0 26 17" version="1.1" xmlns="http://www.w3.org/2000/svg" xmlns:xlink="http://www.w3.org/1999/xlink" xml:space="preserve" xmlns:serif="http://www.serif.com/" style="fill-rule:evenodd;clip-rule:evenodd;stroke-linejoin:round;stroke-miterlimit:1.41421;"><rect id="Artboard5" x="0" y="0" width="25.669" height="16.943" style="fill:none;"/><clipPath id="_clip1"><rect x="0" y="0" width="25.669" height="16.943"/></clipPath><g clip-path="url(#_clip1)"><path id="behance" d="M11.161,8.102c0,0 2.429,-0.188 2.429,-3.156c0,-2.972 -1.987,-4.418 -4.506,-4.418l-8.285,0l0,16.594l8.285,0c0,0 5.059,0.165 5.059,-4.899c-0.001,-0.001 0.22,-4.121 -2.982,-4.121l0,0Zm-6.711,-4.626l4.634,0c0,0 1.127,0 1.127,1.725c0,1.728 -0.662,1.978 -1.414,1.978l-4.347,0l0,-3.703l0,0Zm4.399,10.696l-4.399,0l0,-4.436l4.634,0c0,0 1.679,-0.023 1.679,2.279c0,1.941 -1.254,2.142 -1.914,2.157l0,0Zm12.039,-9.424c-6.125,0 -6.119,6.376 -6.119,6.376c0,0 -0.419,6.343 6.119,6.343c0,0 5.447,0.326 5.447,-4.412l-2.801,0c0,0 0.092,1.785 -2.552,1.785c0,0 -2.804,0.195 -2.804,-2.888l8.245,0c0.002,-0.001 0.91,-7.204 -5.535,-7.204l0,0Zm2.492,4.988l-5.23,0c0,0 0.341,-2.557 2.801,-2.557c2.459,0 2.429,2.557 2.429,2.557l0,0Zm0.65,-8.233l-6.568,0l0,2.046l6.568,0l0,-2.046Z" style="fill-rule:nonzero;"/></g></svg>