<?xml version="1.0" encoding="UTF-8" standalone="no"?><!DOCTYPE svg PUBLIC "-//W3C//DTD SVG 1.1//EN" "http://www.w3.org/Graphics/SVG/1.1/DTD/svg11.dtd"><svg width="100%" height="100%" viewBox="0 0 63 46" version="1.1" xmlns="http://www.w3.org/2000/svg" xmlns:xlink="http://www.w3.org/1999/xlink" xml:space="preserve" xmlns:serif="http://www.serif.com/" style="fill-rule:evenodd;clip-rule:evenodd;stroke-linejoin:round;stroke-miterlimit:1.41421;"><rect id="Artboard3" x="0" y="0" width="62.687" height="45.375" style="fill:none;"/><g transform="matrix(1,0,0,1,-98.4958,-206.086)"><text x="98.374px" y="250.886px" style="font-family:'SubwayTicker', 'Subway Ticker';font-size:13px;">e<tspan x="105.888px " y="250.886px ">l</tspan></text><text x="111.777px" y="250.886px" style="font-family:'SubwayTicker', 'Subway Ticker';font-size:13px;fill:#f00;">p<tspan x="119.291px 125.18px 134.319px 141.833px " y="250.886px 250.886px 250.886px 250.886px ">ixel</tspan></text><text x="147.722px" y="250.886px" style="font-family:'SubwayTicker', 'Subway Ticker';font-size:13px;">l<tspan x="153.611px " y="250.886px ">o</tspan></text></g><g><rect x="28.252" y="12.189" width="1.656" height="1.656" style="fill:#f00;"/><rect x="30.718" y="13.845" width="1.656" height="1.656" style="fill:#f00;"/><rect x="33.243" y="12.189" width="1.656" height="1.656" style="fill:#f00;"/></g><g><rect x="23.664" y="15.021" width="1.656" height="1.656" style="fill:#f00;"/><rect x="23.664" y="12.538" width="1.656" height="1.656" style="fill:#f00;"/><rect x="23.664" y="10.028" width="1.656" height="1.656" style="fill:#f00;"/></g><rect x="27.543" y="5.894" width="1.656" height="1.656" style="fill:#f00;"/><rect x="27.543" y="3.411" width="1.656" height="1.656" style="fill:#f00;"/><g><rect x="30.738" y="5.894" width="1.656" height="1.656" style="fill:#f00;"/><rect x="30.738" y="3.411" width="1.656" height="1.656" style="fill:#f00;"/><rect x="30.738" y="0.901" width="1.656" height="1.656" style="fill:#f00;"/></g><rect x="33.818" y="5.894" width="1.656" height="1.656" style="fill:#f00;"/><rect x="33.818" y="3.411" width="1.656" height="1.656" style="fill:#f00;"/><rect x="37.629" y="15.021" width="1.656" height="1.656" style="fill:#f00;"/><rect x="37.629" y="15.021" width="1.656" height="1.656" style="fill:#f00;"/><path d="M41.951,14.195l0,-1.656l-1.656,0l0,1.656l1.656,0Z" style="fill:#f00;"/><path d="M44.415,14.195l0,-1.656l-1.655,0l0,1.656l1.655,0Z" style="fill:#f00;"/><path d="M44.415,16.677l0,-1.656l-1.655,0l0,1.656l1.655,0Z" style="fill:#f00;"/><g><rect x="33.735" y="18.732" width="1.656" height="1.656" style="fill:#f00;"/><rect x="33.735" y="21.215" width="1.656" height="1.656" style="fill:#f00;"/><rect x="35.537" y="23.725" width="1.656" height="1.656" style="fill:#f00;"/></g><g><rect x="27.803" y="18.732" width="1.656" height="1.656" style="fill:#f00;"/><rect x="27.803" y="21.215" width="1.656" height="1.656" style="fill:#f00;"/><rect x="25.972" y="23.725" width="1.656" height="1.656" style="fill:#f00;"/></g><g><path d="M20.138,11.636l0,-1.655l-1.655,0l0,1.655l1.655,0Z" style="fill:#f00;"/><path d="M20.097,14.195l0,-1.656l-1.655,0l0,1.656l1.655,0Z" style="fill:#f00;"/><path d="M22.652,14.195l0,-1.656l-1.655,0l0,1.656l1.655,0Z" style="fill:#f00;"/></g><rect x="37.629" y="12.538" width="1.656" height="1.656" style="fill:#f00;"/><rect x="37.629" y="12.538" width="1.656" height="1.656" style="fill:#f00;"/><rect x="23.664" y="10.028" width="1.656" height="1.656" style="fill:#f00;"/><rect x="37.629" y="10.028" width="1.656" height="1.656" style="fill:#f00;"/><rect x="37.629" y="10.028" width="1.656" height="1.656" style="fill:#f00;"/></svg>